<svg viewBox="0 0 428 308" xmlns="http://www.w3.org/2000/svg" xmlns:xlink="http://www.w3.org/1999/xlink" id="Layer_1" overflow="hidden"><style>
.MsftOfcThm_Text1_Fill_v2 {
 fill:#FFFFFF; 
}
</style>
<defs></defs><path d="M184.908 223.825C174.026 223.825 164.325 230.872 164.325 242.382 164.325 253.972 174.109 260.94 184.908 260.94 195.88 260.94 205.492 253.824 205.492 242.382 205.492 230.796 195.711 223.825 184.908 223.825ZM199.001 242.382C199.001 250.449 192.315 255.137 184.908 255.137 177.53 255.137 170.868 250.427 170.868 242.382 170.868 234.321 177.489 229.577 184.908 229.577 192.301 229.577 199.001 234.351 199.001 242.382ZM215.314 242.382C215.314 250.428 221.966 255.137 229.354 255.137 233.615 255.137 239.307 253.497 241.837 247.638L248.7 247.638C245.25 258.983 234.445 260.94 229.354 260.94 218.546 260.94 208.771 253.957 208.771 242.382 208.771 230.795 218.55 223.825 229.354 223.825 231.272 223.825 244.748 224.167 248.703 236.872L241.84 236.872C238.82 230.212 231.773 229.577 229.354 229.577 221.88 229.577 215.314 234.378 215.314 242.382ZM281.857 230.033 271.782 230.033C269.496 230.033 268.337 231.985 268.337 235.836L268.337 260.382C268.337 260.382 261.847 260.382 261.847 260.382L261.847 235.836C261.847 232.82 263.137 230.933 265.864 230.033L248.767 230.033 248.767 224.382 281.857 224.382 281.857 230.033ZM299.228 224.382 290.585 224.382C290.585 224.382 274.444 260.382 274.444 260.382L281.465 260.382C281.465 260.382 285.082 252.175 285.082 252.175L304.732 252.175C304.732 252.175 308.348 260.382 308.348 260.382L315.369 260.382C315.369 260.382 299.228 224.382 299.228 224.382ZM295.318 230.793 302.21 246.473 287.603 246.473C287.603 246.473 294.496 230.793 294.496 230.793L295.318 230.793ZM341.091 224.382 348.268 224.382C348.268 224.382 332.721 260.382 332.721 260.382L323.754 260.382C323.754 260.382 308.207 224.382 308.207 224.382L315.384 224.382C315.384 224.382 327.776 253.567 327.776 253.567L328.699 253.567C328.699 253.567 341.091 224.382 341.091 224.382ZM357.413 230.033 357.413 239.481C357.413 239.481 376.875 239.481 376.875 239.481L376.875 245.081 357.413 245.081C357.413 245.081 357.413 254.732 357.413 254.732L379.432 254.732 379.432 260.382 350.923 260.382C350.923 260.382 350.923 224.382 350.923 224.382L379.432 224.382 379.432 230.033 357.413 230.033ZM227.503 80.8679 259.461 48.9102C240.992 41.3331 215.536 36 180.034 36 121.154 36 73.4234 64.0131 73.4234 98.5689 73.4234 126.959 105.64 150.932 149.787 158.584L133.045 175.326C86.7633 154.869 36.0001 173.793 36.0001 199.675 36.0001 214.789 53.3093 227.53 76.9281 231.443L59.2606 249.11C72.0643 253.292 85.4182 254.732 99.8451 254.732 130.904 254.732 156.082 239.955 156.082 221.727 156.082 211.902 148.766 203.083 137.159 197.036 152.581 200.69 171.397 202.942 194.457 202.942 253.336 202.942 301.067 174.929 301.067 140.373 301.067 112.587 270.206 89.031 227.503 80.8678ZM96.0694 228.211C72.9203 228.211 54.1543 219.644 54.1543 209.076 54.1543 198.508 72.9203 189.941 96.0694 189.941 119.218 189.941 137.984 198.508 137.984 209.076 137.984 219.644 119.218 228.211 96.0694 228.211ZM188.222 156.491C143.602 156.491 107.429 139.901 107.429 119.436 107.429 98.9705 143.602 82.3802 188.222 82.3802 232.843 82.3802 269.015 98.9705 269.015 119.436 269.015 139.901 232.843 156.491 188.222 156.491Z" class="MsftOfcThm_Text1_Fill_v2" fill="#FFFFFF"/></svg>